<svg width="24" height="24" viewBox="0 0 24 24" fill="none" xmlns="http://www.w3.org/2000/svg">
<path d="M5.21859 18.4C5.27192 18.4 5.32525 18.3947 5.37859 18.3867L9.86392 17.6C9.91725 17.5893 9.96792 17.5653 10.0053 17.5253L21.3092 6.22133C21.334 6.19666 21.3536 6.16735 21.367 6.13509C21.3803 6.10284 21.3872 6.06825 21.3872 6.03333C21.3872 5.9984 21.3803 5.96382 21.367 5.93156C21.3536 5.8993 21.334 5.87 21.3092 5.84533L16.8773 1.41066C16.8266 1.35999 16.7599 1.33333 16.6879 1.33333C16.6159 1.33333 16.5493 1.35999 16.4986 1.41066L5.19458 12.7147C5.15458 12.7547 5.13059 12.8027 5.11992 12.856L4.33325 17.3413C4.30731 17.4842 4.31658 17.6312 4.36026 17.7697C4.40393 17.9081 4.4807 18.0339 4.58392 18.136C4.75992 18.3067 4.98125 18.4 5.21859 18.4ZM7.01592 13.7493L16.6879 4.07999L18.6426 6.03466L8.97058 15.704L6.59992 16.1227L7.01592 13.7493ZM21.8133 20.64H2.18659C1.71459 20.64 1.33325 21.0213 1.33325 21.4933V22.4533C1.33325 22.5707 1.42925 22.6667 1.54659 22.6667H22.4533C22.5706 22.6667 22.6666 22.5707 22.6666 22.4533V21.4933C22.6666 21.0213 22.2853 20.64 21.8133 20.64Z" fill="#686974"/>
</svg>
